PathFileType	4	(X/Y/Z)	/Users/mathieubourgeois/Desktop/Analyse/Traitement/Sujet_01/Transformed_Static_Sujet_01_Tpose.trc
DataRate	CameraRate	NumFrames	NumMarkers	Units	OrigDataRate	OrigDataStartFrame	OrigNumFrames
120.000000	120.000000	4	35	mm	120.000000	56	226
Frame#	Time	LFHD			RFHD			LBHD			RBHD			RSHO			LSHO			CLAV			STRN			T10			RHUM			LHUM			LRAD			RRAD			RWRA			RWRB			RCAR			LCAR			LWRA			LWRB			RFWT			LFWT			LBWT			RBWT			RKNI			LKNI			RKNE			LKNE			RANE			RANI			LANI			LANE			LHEE			RHEE			RTOE			LTOE			
		X1	Y1	Z1	X2	Y2	Z2	X3	Y3	Z3	X4	Y4	Z4	X5	Y5	Z5	X6	Y6	Z6	X7	Y7	Z7	X8	Y8	Z8	X9	Y9	Z9	X10	Y10	Z10	X11	Y11	Z11	X12	Y12	Z12	X13	Y13	Z13	X14	Y14	Z14	X15	Y15	Z15	X16	Y16	Z16	X17	Y17	Z17	X18	Y18	Z18	X19	Y19	Z19	X20	Y20	Z20	X21	Y21	Z21	X22	Y22	Z22	X23	Y23	Z23	X24	Y24	Z24	X25	Y25	Z25	X26	Y26	Z26	X27	Y27	Z27	X28	Y28	Z28	X29	Y29	Z29	X30	Y30	Z30	X31	Y31	Z31	X32	Y32	Z32	X33	Y33	Z33	X34	Y34	Z34	X35	Y35	Z35	

57	0.4666666666666667	-3.716313123703019	1561.470947265625	132.2635192871093	24.72879028320309	1549.45556640625	254.1948699951171	-154.5481872558594	1569.46630859375	165.8488922119139	-120.7267379760743	1555.908569335938	295.1514282226561	-123.0773315429688	1409.325927734375	345.9584350585936	-148.7215118408203	1399.615600585938	96.76827239990224	-64.29748535156253	1365.39990234375	194.8222503662109	-21.95514106750491	1265.53076171875	205.1167449951171	-232.171859741211	1212.57861328125	239.5792694091796	-110.7501220703126	1236.705810546875	589.5898437499999	-137.0113830566406	1239.835815429688	-160.7455139160157	-182.2975006103515	1278.209228515625	-179.6795806884767	-163.0642089843751	1272.214111328125	604.5577392578124	-175.1429443359376	1281.264038085938	826.5658569335936	-168.3419342041017	1219.799072265625	821.7738037109374	-220.3522949218751	1214.36767578125	898.6320800781249	-216.6083068847656	1235.47998046875	-477.4057006835938	-175.5782318115234	1286.430541992188	-402.9576416015626	-184.6243133544921	1220.663330078125	-393.8903503417969	-46.74729919433598	930.8018188476562	342.4226074218749	-52.851131439209	943.4567260742188	116.9480514526367	-235.8453674316407	946.8675537109375	185.8066864013671	-226.9044952392578	956.3355102539062	302.8770141601562	-181.126449584961	434.8993225097656	273.1460571289062	-154.1805572509766	474.2944946289062	213.5466918945312	-162.5956726074219	470.1457214355469	390.0305175781249	-170.2528839111328	458.6238403320312	85.3792343139648	-189.3153076171876	120.487060546875	379.441162109375	-175.7270660400391	123.683464050293	300.8594970703125	-178.7764129638672	123.6212768554688	190.2732696533203	-194.0758056640625	112.8903579711914	115.1978454589843	-252.0299835205078	63.67940521240235	163.2048034667968	-249.0173645019532	74.80432128906251	345.4512329101562	-1.860706210136457	61.99421691894533	354.7721862792969	0.4671285748481589	57.37671661376954	131.7310485839844	
58	0.475	-3.806074619293229	1561.545654296875	132.3130493164062	24.71001052856442	1549.517211914062	254.227798461914	-154.5919494628907	1569.452880859375	165.9264068603514	-120.7380676269532	1555.893310546875	295.234649658203	-123.0065155029297	1409.286254882812	345.9888916015624	-148.6628875732422	1399.61962890625	96.80433654785146	-64.19962310791018	1365.384155273438	194.8278350830077	-21.93495941162112	1265.48681640625	205.1463623046874	-232.1282348632813	1212.585815429688	239.5920562744139	-110.6005859375001	1236.615234375	589.5798950195311	-136.8177642822265	1239.878051757812	-160.7109375000001	-182.1228790283203	1278.261352539062	-179.6753540039064	-162.8514099121095	1272.15869140625	604.5919799804686	-174.7355346679689	1281.189575195312	826.6112670898436	-168.0162353515626	1219.735595703125	821.8014526367186	-219.8343353271486	1214.281127929688	898.7313232421874	-216.1414031982421	1235.593505859375	-477.4332885742188	-175.2843017578124	1286.515991210938	-402.9183349609376	-184.2540435791015	1220.728149414062	-393.8945922851563	-46.71985244750981	930.79345703125	342.4306335449218	-52.78834533691408	943.4476928710938	116.9573669433593	-235.8051147460938	946.8812866210938	185.8037567138671	-226.8656616210938	956.3450317382812	302.8754882812499	-181.1246032714844	434.9134216308594	273.1612854003906	-154.193115234375	474.3067321777344	213.5585479736328	-162.6162872314454	470.1499938964844	390.0432128906249	-170.2583160400391	458.6216735839844	85.38191223144527	-189.3238220214844	120.4829711914063	379.4295043945312	-175.5387268066407	123.5882797241211	300.9889221191406	-178.7759552001953	123.6207504272461	190.2779083251953	-194.0837860107422	112.8833618164062	115.2051925659179	-252.0398559570313	63.6891212463379	163.2081909179687	-249.0061645507813	74.80515289306642	345.4531860351562	-1.867868423461958	61.99392318725588	354.777587890625	0.4731551706790763	57.38053894042969	131.7297210693359	
59	0.4833333333333333	-3.86796402931215	1561.6181640625	132.3531646728515	24.69207191467282	1549.5693359375	254.2439575195312	-154.6724853515625	1569.44970703125	166.0570983886718	-120.7359008789063	1555.848754882812	295.2972106933593	-122.9570846557618	1409.2548828125	346.0130310058593	-148.6034393310547	1399.632080078125	96.84705352783193	-64.13103485107425	1365.381103515625	194.8647003173827	-21.9131889343262	1265.453002929688	205.1678009033202	-232.0693817138672	1212.565063476562	239.586456298828	-110.4156646728516	1236.550537109375	589.5592041015624	-136.6044311523437	1239.918212890625	-160.6895751953126	-181.936538696289	1278.306396484375	-179.6678924560548	-162.6672668457032	1272.099365234375	604.6151123046874	-174.3471069335939	1281.103759765625	826.6606445312499	-167.6460113525392	1219.6748046875	821.8052978515624	-219.3536987304689	1214.228149414062	898.8361816406249	-215.8033142089843	1235.68212890625	-477.4446716308594	-175.0015716552734	1286.58349609375	-402.8865966796876	-183.9119415283203	1220.822265625	-393.9057617187501	-46.68809509277348	930.7860717773438	342.4564208984374	-52.7482376098633	943.4470825195312	116.9693145751953	-235.7630157470703	946.8984375	185.794204711914	-226.826889038086	956.349609375	302.8721313476562	-181.1412353515625	434.9034118652344	273.1535339355469	-154.1990966796875	474.2942199707031	213.5665283203124	-162.6184539794922	470.150146484375	390.0422668457031	-170.236328125	458.6324768066406	85.38256835937496	-189.3129272460938	120.4734878540039	379.4219665527344	-175.5584564208985	123.6026840209961	300.9807739257812	-178.7719421386719	123.6136932373047	190.2682495117187	-194.0838165283203	112.8939208984375	115.2047119140625	-252.0368957519532	63.68142700195313	163.214859008789	-249.0096435546875	74.81776428222658	345.4504699707031	-1.84936606884007	61.98736190795901	354.7743530273438	0.464995890855773	57.37458801269532	131.7239379882812	
60	0.4916666666666666	-3.911032199859636	1561.687622070312	132.3725128173827	24.69320487976071	1549.617065429688	254.2494506835937	-154.6974334716797	1569.445434570312	166.1200866699218	-120.714599609375	1555.830200195312	295.3622436523436	-122.9162673950196	1409.234008789062	346.0172424316405	-148.5680541992188	1399.646240234375	96.88587951660146	-64.08109283447268	1365.364990234375	194.8970489501952	-21.90108871459963	1265.394653320312	205.1840057373046	-232.0252227783203	1212.5556640625	239.5838775634764	-110.2517929077149	1236.460327148438	589.5526733398436	-136.4057006835937	1239.948486328125	-160.6766815185548	-181.7161712646484	1278.323364257812	-179.6592712402345	-162.4695281982423	1272.033203125	604.6461791992186	-173.9657135009767	1281.045532226562	826.6865844726561	-167.2299652099611	1219.615844726562	821.8543701171874	-219.0245513916017	1214.179931640625	898.9036865234374	-215.4802856445312	1235.773803710938	-477.4389648437501	-174.7316894531249	1286.663696289062	-402.8715820312501	-183.6388702392578	1220.871826171875	-393.9036560058594	-46.64310836791996	930.7901611328125	342.4736022949218	-52.68558502197267	943.4306030273438	116.9883346557617	-235.7102661132813	946.9032592773438	185.7875823974609	-226.7894287109375	956.3574829101562	302.8693542480468	-181.1429595947266	434.9081115722656	273.1730041503906	-154.2068634033203	474.3109436035156	213.5814514160156	-162.618392944336	470.1553955078125	390.0563049316406	-170.2242584228516	458.6399536132812	85.39995574951168	-189.3240356445313	120.5010681152344	379.4420166015625	-175.5436553955078	123.6066589355469	300.9927062988281	-178.7613830566407	123.6151733398438	190.2685241699218	-194.0690155029297	112.8971481323242	115.2043380737304	-252.0284729003907	63.69129943847657	163.2061614990234	-249.0181732177735	74.81674194335939	345.4591369628906	-1.857342481613203	61.99337005615237	354.7714233398438	0.4728059172630149	57.37310028076173	131.7217254638672	
